Coordinates
version=1
nRows=23
nColumns=38
inDegrees=no

Units are S.I. units (second, meters, Newtons, ...)
If the header above contains a line with 'inDegrees', this indicates whether rotational values are in degrees (yes) or radians (no).

endheader
time	pelvis_tilt	pelvis_list	pelvis_rotation	pelvis_tx	pelvis_ty	pelvis_tz	hip_flexion_r	hip_adduction_r	hip_rotation_r	knee_angle_r	ankle_angle_r	subtalar_angle_r	mtp_angle_r	hip_flexion_l	hip_adduction_l	hip_rotation_l	knee_angle_l	ankle_angle_l	subtalar_angle_l	mtp_angle_l	lumbar_extension	lumbar_bending	lumbar_rotation	arm_flex_r	arm_add_r	arm_rot_r	elbow_flex_r	pro_sup_r	wrist_flex_r	wrist_dev_r	arm_flex_l	arm_add_l	arm_rot_l	elbow_flex_l	pro_sup_l	wrist_flex_l	wrist_dev_l
0	2.87934	1.32047	-1.24133	0.674041	-0.272202	0.944385	-0.510231	0.0340477	-0.61746	0.210065	-0.146194	0	0	0.144872	-0.0785114	-0.298219	0.210278	-0.168327	0	0	-0.404375	0.0199078	-0.110919	0.0911051	-0.46736	1.06527	0.659223	0.367363	0	0	-0.301811	-0.366776	0.0290013	0.880284	1.50254	0	0
0.01	2.86669	1.3259	-1.23271	0.673663	-0.26157	0.942926	-0.510536	0.0321277	-0.612663	0.213708	-0.152379	0	0	0.141325	-0.0755997	-0.285229	0.177599	-0.174796	0	0	-0.398647	0.0176863	-0.108078	0.0960075	-0.465161	1.07837	0.6533	0.356122	0	0	-0.303496	-0.365215	0.0215202	0.872359	1.5031	0	0
0.02	2.85824	1.32746	-1.23027	0.673418	-0.250561	0.94183	-0.515363	0.0284268	-0.609563	0.221636	-0.157701	0	0	0.135918	-0.0755836	-0.279649	0.163222	-0.180347	0	0	-0.396868	0.0148399	-0.10304	0.0991796	-0.463418	1.08675	0.648831	0.348332	0	0	-0.306336	-0.36464	0.0143752	0.866857	1.5035	0	0
0.03	2.85267	1.32787	-1.23079	0.673071	-0.239256	0.940909	-0.521859	0.0238601	-0.607025	0.230781	-0.16318	0	0	0.131268	-0.0763556	-0.276226	0.164601	-0.184374	0	0	-0.396225	0.0116797	-0.0980034	0.101579	-0.462699	1.09437	0.646029	0.341647	0	0	-0.309992	-0.363926	0.00676449	0.862537	1.50329	0	0
0.04	2.84813	1.32909	-1.23185	0.672509	-0.227626	0.94005	-0.523599	0.0180123	-0.605952	0.242457	-0.172302	0	0	0.128458	-0.0767444	-0.272552	0.178059	-0.18615	0	0	-0.394269	0.00837192	-0.0940201	0.104122	-0.462145	1.10445	0.64271	0.332632	0	0	-0.314433	-0.362024	-0.00250119	0.857885	1.50318	0	0
0.05	2.84517	1.33067	-1.23405	0.671737	-0.215666	0.939306	-0.523599	0.0116536	-0.603611	0.25435	-0.183837	0	0	0.125746	-0.0767168	-0.269615	0.199538	-0.183623	0	0	-0.39137	0.00489739	-0.0906705	0.106108	-0.461857	1.1155	0.639087	0.323625	0	0	-0.319179	-0.360078	-0.0112962	0.852571	1.50435	0	0
0.06	2.84545	1.33183	-1.23841	0.670748	-0.203308	0.938704	-0.523599	0.00395798	-0.605125	0.267365	-0.199516	0	0	0.120732	-0.0757322	-0.267172	0.222504	-0.1759	0	0	-0.388262	0.00120703	-0.088521	0.107214	-0.461713	1.12693	0.635426	0.315017	0	0	-0.324632	-0.358353	-0.0197028	0.847445	1.50719	0	0
0.07	2.84538	1.33362	-1.24197	0.669513	-0.190677	0.938205	-0.523599	-0.00184036	-0.595051	0.276458	-0.215693	0	0	0.113953	-0.0732139	-0.264575	0.239322	-0.169057	0	0	-0.384001	-0.00212815	-0.0866163	0.106477	-0.46199	1.13547	0.631803	0.309742	0	0	-0.329481	-0.3567	-0.0264852	0.841218	1.50869	0	0
0.08	2.84791	1.33512	-1.24604	0.667942	-0.177721	0.937893	-0.523599	-0.00859211	-0.588945	0.287043	-0.235012	0	0	0.104416	-0.0679	-0.26085	0.243731	-0.173351	0	0	-0.379622	-0.00518989	-0.0865326	0.104145	-0.462161	1.14189	0.627891	0.306439	0	0	-0.334372	-0.355942	-0.0314945	0.83518	1.50803	0	0
0.09	2.85201	1.33704	-1.25011	0.666083	-0.164665	0.937799	-0.523599	-0.0153332	-0.582893	0.298602	-0.256931	0	0	0.0943738	-0.0604445	-0.256183	0.237435	-0.192244	0	0	-0.374703	-0.00799576	-0.0876833	0.100677	-0.462128	1.14584	0.623412	0.304328	0	0	-0.338441	-0.355804	-0.0344067	0.828317	1.50842	0	0
0.1	2.85826	1.33869	-1.25484	0.663991	-0.151618	0.9381	-0.523599	-0.0226812	-0.580005	0.311063	-0.285727	0	0	0.0838553	-0.0525666	-0.2523	0.228197	-0.218467	0	0	-0.370223	-0.01059	-0.090094	0.0970853	-0.461574	1.14877	0.618016	0.302547	0	0	-0.341449	-0.355872	-0.0364859	0.820412	1.51063	0	0
0.11	2.87009	1.34071	-1.26391	0.66163	-0.138709	0.938736	-0.523599	-0.0300479	-0.568138	0.325451	-0.317808	0	0	0.0742093	-0.0439199	-0.250456	0.223645	-0.239592	0	0	-0.366215	-0.0138317	-0.0940465	0.0938277	-0.46111	1.15146	0.612811	0.301508	0	0	-0.34301	-0.355647	-0.0386432	0.811688	1.51396	0	0
0.12	2.88655	1.34219	-1.27551	0.659037	-0.125881	0.939744	-0.523599	-0.0388796	-0.560681	0.342456	-0.356851	0	0	0.0655677	-0.0354695	-0.248678	0.226934	-0.25135	0	0	-0.363407	-0.0169667	-0.100235	0.0908481	-0.460726	1.15399	0.608083	0.300875	0	0	-0.343266	-0.3553	-0.0413059	0.802805	1.51571	0	0
0.13	2.90689	1.34282	-1.28908	0.656241	-0.113165	0.94098	-0.523599	-0.048764	-0.552878	0.364622	-0.395517	0	0	0.058104	-0.0276567	-0.244718	0.237852	-0.256695	0	0	-0.362091	-0.0200885	-0.107979	0.0877479	-0.461064	1.1557	0.60507	0.300217	0	0	-0.34403	-0.356609	-0.0424617	0.796754	1.51741	0	0
0.14	2.92518	1.34112	-1.29907	0.653298	-0.100658	0.94259	-0.523599	-0.0577148	-0.547395	0.387436	-0.443559	0	0	0.0496209	-0.022432	-0.239219	0.252886	-0.260609	0	0	-0.363363	-0.0214638	-0.116628	0.0852824	-0.462319	1.15752	0.603672	0.29919	0	0	-0.345425	-0.359381	-0.0418533	0.793838	1.52181	0	0
0.15	2.94891	1.33821	-1.31349	0.650204	-0.0883738	0.944225	-0.523599	-0.069212	-0.538531	0.423627	-0.494094	0	0	0.0392749	-0.0171239	-0.235175	0.267738	-0.264106	0	0	-0.366595	-0.0230152	-0.127221	0.083443	-0.466094	1.15939	0.607022	0.298021	0	0	-0.347556	-0.36272	-0.0420575	0.794726	1.52482	0	0
0.16	2.96816	1.32957	-1.32331	0.646938	-0.0767943	0.946281	-0.523599	-0.0794905	-0.532258	0.460711	-0.568711	0	0	0.0222854	-0.0149696	-0.23382	0.27972	-0.267389	0	0	-0.377397	-0.0211089	-0.138179	0.0843431	-0.474708	1.16201	0.617936	0.29543	0	0	-0.348728	-0.366054	-0.0429107	0.800074	1.52566	0	0
0.17	2.97941	1.32801	-1.32582	0.644049	-0.0651198	0.947923	-0.507684	-0.0901571	-0.528044	0.500127	-0.64246	0	0	0.0118748	-0.0137373	-0.23326	0.289424	-0.268253	0	0	-0.378961	-0.0195024	-0.146767	0.0825985	-0.479616	1.16313	0.622494	0.293595	0	0	-0.346846	-0.37071	-0.0391695	0.801238	1.52441	0	0
0.18	2.99746	1.33234	-1.33706	0.641426	-0.053618	0.948815	-0.475011	-0.109007	-0.520297	0.565515	-0.688732	0	0	0.00628096	-0.00904195	-0.23417	0.297162	-0.266399	0	0	-0.374387	-0.0215915	-0.155004	0.0800341	-0.484148	1.16265	0.627278	0.293722	0	0	-0.345895	-0.376346	-0.0352933	0.804851	1.51928	0	0
0.19	3.01106	1.33581	-1.34545	0.638999	-0.0425528	0.949821	-0.441393	-0.125653	-0.507124	0.630289	-0.698132	0	0	-0.000715622	-0.00567189	-0.236139	0.303142	-0.263094	0	0	-0.370987	-0.0228564	-0.161477	0.0785881	-0.488441	1.16187	0.631427	0.295534	0	0	-0.344073	-0.382795	-0.0303239	0.810133	1.51673	0	0
0.2	3.02551	1.3414	-1.35622	0.636711	-0.0317066	0.950506	-0.40201	-0.143467	-0.4906	0.700506	-0.698132	0	0	-0.00577004	-0.00120391	-0.237909	0.308896	-0.256952	0	0	-0.365347	-0.0252023	-0.166708	0.0767122	-0.493251	1.1592	0.636447	0.298917	0	0	-0.341713	-0.389451	-0.0249742	0.816286	1.51392	0	0
0.21	3.03841	1.34715	-1.36633	0.634518	-0.0210352	0.951	-0.361948	-0.160929	-0.477403	0.76754	-0.698132	0	0	-0.0108714	0.00325783	-0.239052	0.313903	-0.249151	0	0	-0.359548	-0.0273074	-0.171813	0.0753416	-0.499037	1.15552	0.642998	0.303865	0	0	-0.339108	-0.395381	-0.0219706	0.82354	1.51048	0	0
0.22	3.04654	1.35287	-1.37237	0.632475	-0.0105094	0.951344	-0.322271	-0.178542	-0.473768	0.830053	-0.698132	0	0	-0.0160721	0.00681594	-0.239173	0.317865	-0.240238	0	0	-0.3536	-0.0285124	-0.176677	0.074555	-0.505277	1.15139	0.65018	0.310072	0	0	-0.336811	-0.400678	-0.0212821	0.832279	1.50623	0	0
